<svg width="1400" height="800" viewBox="0 0 1400 800" fill="none" xmlns="http://www.w3.org/2000/svg">
<path d="M962.402 137.118C1050.16 137.118 1040.52 20.7607 1040.52 20.7607V-38L1494 -6.58341V850.973H260.875H52.9022C52.9022 850.973 -14.5424 867.603 12.3221 805.594C52.9022 711.926 187.323 583.35 187.323 583.35C187.323 583.35 393.774 482.701 492.181 633.966C590.587 785.231 559.645 659.069 559.645 539.716C559.645 420.363 739.212 614.185 752.4 539.716C765.589 465.247 726.023 276.748 854.358 346.562C982.692 416.377 900.01 237.768 900.01 237.768C900.01 237.768 874.648 137.118 962.402 137.118Z" fill="#52888A" stroke="white" stroke-width="10"/>
</svg>
